<?xml version="1.0" encoding="utf-8"?>
<!-- Generator: Adobe Illustrator 18.0.0, SVG Export Plug-In . SVG Version: 6.00 Build 0)  -->
<!DOCTYPE svg PUBLIC "-//W3C//DTD SVG 1.1//EN" "http://www.w3.org/Graphics/SVG/1.1/DTD/svg11.dtd">
<svg version="1.1" id="Слой_1" xmlns="http://www.w3.org/2000/svg" xmlns:xlink="http://www.w3.org/1999/xlink" x="0px" y="0px"
	 viewBox="44 0 640 1024" enable-background="new 44 0 640 1024" xml:space="preserve">
<path fill="#FF1493"      d="
	M459.5,246.4L459.5,246.4c0.4-0.9,0.5-1.2,0.7-1.7c41.6-103.2,20.6-209.1-47-236.3C345.6-18.9,257,42.9,215.4,146.1
	c-0.2,0.5-0.3,0.8-0.7,1.7l0,0c0,0-0.3,0.9-0.6,1.5c-0.3,0.6-0.6,1.4-0.8,2.1c-0.2,0.6-0.4,1.1-0.8,2l0,0c-3.8,10.1-7,20.4-9.8,30.9
	l-0.1-0.1c-0.5,1.9-1,3.8-1.4,5.8l0.1,0.1c-2.2,9.7-4.3,20.5-5.5,30.6l-0.2-0.1c-0.2,2-0.5,4-0.7,6.1l0.3,0.1
	c-0.9,11.2-1.3,22.7-1,34.5l-0.4-0.2c0.1,2.2,0.2,4.3,0.3,6.5l0.4,0.2c1,11,2.6,22,4.8,32.2l-0.5,1.2l1,0.4c0.2,0.1,0.4,0.2,0.3,1.2
	l-0.7-0.3c0.6,2.4,1.3,4.7,1.9,7.1l0.7,0.3c9.6,30.3,26.2,54.5,50.4,67.7l-97.1,240.8c-3.2,0.1-6.8,2.3-8.3,6.1L53.6,846.6
	c-2,4.9,1.3,11.4,7.4,13.9l15.5,6.2c6,2.4,12.7,0,14.7-5l86-225.2c1.7-4.1,0.8-8.6-3.3-11.4l96.9-240.5c26.6,7.5,55.9,2.6,83.3-11.7
	l0.8,0.3c0.5-0.8,0.6-0.7,0.8-1.1c0.2-0.1,0.6-0.5,0.7-0.4l0.7,0.3c2.1-1.2,4.3-2.5,6.3-3.8l-0.7-0.3c9.9-6.6,19.3-13.4,28.3-21.4
	l0.4,0.2c1.6-1.5,3.2-2.9,4.7-4.4l-0.4-0.2c8.3-8.3,16-16.8,23.1-25.5l0.3,0.1c1.3-1.6,2.5-3.2,3.7-4.8l-0.2-0.1
	c6.1-8.1,12.1-17.3,17.2-25.8l0.1,0.1c1-1.7,2-3.4,3-5.1l-0.1,0c5.3-9.5,10.1-19.2,14.4-29.1l0,0c0.4-0.9,0.6-1.5,0.9-2.1
	c0.3-0.6,0.5-1.1,0.7-1.7C459.1,247.5,459.5,246.4,459.5,246.4z M412.5,103.8l-14.7,36.4L365.1,127l14.7-36.4L412.5,103.8z
	 M382,85.2L393.3,57l32.7,13.2l-11.4,28.2L382,85.2z M395.7,145.7l-12.5,30.9l-32.7-13.2l12.5-30.9L395.7,145.7z M381,182
	l-11.4,28.2L336.9,197l11.4-28.2L381,182z M367.4,215.7l-12.1,30l-32.7-13.2l12.1-30L367.4,215.7z M353.1,251.1l-11.4,28.2
	L309,266.1l11.4-28.2L353.1,251.1z M339.6,284.8l-12.1,30l-32.7-13.2l12.1-30L339.6,284.8z M325.3,320.2l-11.4,28.2l-32.7-13.2
	l11.4-28.2L325.3,320.2z M347.2,281.5l11.4-28.2l32.7,13.2L380,294.7L347.2,281.5z M377.8,300.1l-12.1,30L332.9,317l12.1-30
	L377.8,300.1z M360.8,247.9l12.1-30l32.7,13.2l-12.1,30L360.8,247.9z M375.1,212.4l11.4-28.2l32.7,13.2l-11.4,28.2L375.1,212.4z
	 M388.7,178.8l12.5-30.9l32.7,13.2L421.4,192L388.7,178.8z M403.3,142.4L418,106l32.7,13.2L436,155.6L403.3,142.4z M338.5,358.3
	l-19.1-7.7l11.4-28.2l32.7,13.2l-4.8,11.9C352.7,351.9,345.7,354.9,338.5,358.3z M330.1,361.3c-5.1,1.1-10.7,2.3-16.2,3l3.3-8.2
	L330.1,361.3z M420.2,100.6l11.4-28.2l27.2,11c1.3,2.6,1.9,5.8,2.7,9.1l-8.6,21.3L420.2,100.6z M466.6,119.3l-8.2-3.3l5.5-13.5
	C464.9,107.7,466.3,112.8,466.6,119.3z M441.5,157.8l14.7-36.4l11,4.4c1,13.1,0.9,26.8-1.1,41.8L441.5,157.8z M465.2,173.7
	c-1.2,10.1-3.8,21.7-7,33.1l-31.4-12.7l12.5-30.9L465.2,173.7z M424.6,199.6l31.9,12.9c-2.3,7.5-5.1,15.6-8.3,23.4
	c-0.7,1.7-1.4,3.3-2.1,5.1l-32.9-13.3L424.6,199.6z M455.9,75.9l-22.2-8.9l7.1-17.6C447.2,57.1,452.1,65.9,455.9,75.9z M436.5,44.2
	l-8.3,20.5l-32.7-13.2l11-27.3l-5.5-2.2l-11,27.3l-33.6-13.6l7-17.3c15.6-2,29.6-0.8,43.3,4.7C418.2,27.7,428.6,35.1,436.5,44.2z
	 M270,250.3l11.4-28.2l33.6,13.6l-11.4,28.2L270,250.3z M301.4,269.4l-12.1,30l-33.6-13.6l12.1-30L301.4,269.4z M283.5,216.7
	l12.1-30l33.6,13.6l-12.1,30L283.5,216.7z M297.8,181.2l11.4-28.2l33.6,13.6l-11.4,28.2L297.8,181.2z M311.4,147.6l12.5-30.9
	l33.6,13.6L345,161.2L311.4,147.6z M326,111.2l14.7-36.4l33.6,13.6l-14.7,36.4L326,111.2z M342.9,69.4l11.4-28.2l33.6,13.6L376.5,83
	L342.9,69.4z M253.5,291.3l33.6,13.6L275.7,333l-33.6-13.6L253.5,291.3z M356.6,19.7L351,33.6l-15.4-6.2
	C342.8,23.9,349.6,21.3,356.6,19.7z M280.2,99.1L267.7,130l-24.6-9.9c5.6-10.4,11.8-20.6,17.9-28.7L280.2,99.1z M264.7,86.5
	c9-12.2,18.4-22.2,28.2-30.9l4.2,1.7l-14.7,36.4L264.7,86.5z M297.9,51.3c1.3-1.6,2.5-2.2,2.9-3.3l-1.5,3.8L297.9,51.3z M328.4,30.8
	l20.4,8.2l-11.4,28.2L304.7,54l5.2-12.9C316.7,37.3,322.3,33.7,328.4,30.8z M245.3,201.3l12.1-30l32.7,13.2l-12.1,30L245.3,201.3z
	 M275.9,220l-11.4,28.2L231.8,235l11.4-28.2L275.9,220z M259.6,165.9l11.4-28.2l32.7,13.2L292.4,179L259.6,165.9z M273.2,132.2
	l12.5-30.9l32.7,13.2l-12.5,30.9L273.2,132.2z M287.8,95.8l14.7-36.4l32.7,13.2L320.6,109L287.8,95.8z M229.6,240.4l32.7,13.2
	l-12.1,30l-32.7-13.2L229.6,240.4z M230.1,148c3.2-7.8,6.7-15.6,10.3-22.6l25.1,10.1l-11.4,28.2l-26.1-10.5
	C228.8,151.3,229.4,149.7,230.1,148z M226,158.7l25.9,10.5l-12.1,30l-22.9-9.2C219.4,179.2,222.4,168.8,226,158.7z M215.7,195.7
	l22,8.9l-11.4,28.2l-15-6C212.2,216.5,213.8,205.5,215.7,195.7z M211,232.9l13.1,5.3l-12.1,30l0.3,0.1
	C211.2,256.2,210.7,244.4,211,232.9z M213.9,279.3l1.4-3.5l32.7,13.2l-11.4,28.2l-12.3-5C220,302.1,216.5,291.1,213.9,279.3z
	 M234.4,322.7l-1.8,4.5c-1.2-2.3-2.5-5.2-4.3-7L234.4,322.7z M236.7,332.8l3.2-7.9l33.6,13.6l-7.6,18.8
	C255.4,352,245.1,343.4,236.7,332.8z M271.4,359.6l7.6-18.9l32.7,13.2l-4.5,11.1C295.2,366,283.2,364.3,271.4,359.6z M367.3,341.9
	l1.7-4.1l3.4,1.4C371,339.7,369.7,341.2,367.3,341.9z M377.7,335l-6.5-2.6l12.1-30l19.9,8C395.4,318.9,386.8,327.1,377.7,335z
	 M407.2,305.7l-21.8-8.8l11.4-28.2l28.8,11.6C420.1,288.7,413.7,297.7,407.2,305.7z M428.7,275.2l-29.7-12l12.1-30l32.7,13.2
	C439.4,256.3,434.3,265.9,428.7,275.2z M615.7,532.9L615.7,532.9c0.6-0.8,0.8-1,1.2-1.5c69.3-87.1,79.4-194.5,22.3-239.9
	c-57-45.4-159.6-11.5-228.9,75.6c-0.3,0.4-0.5,0.7-1.1,1.4l0,0c0,0-0.6,0.8-1,1.2c-0.4,0.5-0.9,1.2-1.4,1.7
	c-0.4,0.5-0.7,0.9-1.3,1.7l0,0c-6.5,8.6-12.6,17.6-18.2,26.9l-0.1-0.1c-1,1.7-2,3.4-3,5.1l0.1,0.1c-4.9,8.7-9.9,18.4-14,27.7
	l-0.2-0.2c-0.8,1.9-1.6,3.7-2.4,5.6l0.2,0.2c-4.1,10.5-7.7,21.4-10.8,32.7l-0.3-0.3c-0.5,2.1-1,4.2-1.5,6.3l0.4,0.3
	c-2.2,10.8-3.8,21.8-4.6,32.2l-0.8,1l0.8,0.7c0.2,0.1,0.4,0.3-0.1,1.2l-0.6-0.4c-0.1,2.4-0.1,4.9-0.2,7.4l0.6,0.5
	c0.6,31.8,9.5,59.7,29,79.3L218.3,802.4c-3.1-0.8-7.1,0.3-9.7,3.5L55.5,992.4c-3.3,4.2-2,11.3,3.1,15.4l13,10.4
	c5.1,4,12.2,3.6,15.5-0.6l146.7-191.3c2.8-3.5,3.2-8,0.1-11.9l161.5-202.8c23.3,14.8,52.8,18.5,83.2,12.6l0.6,0.5
	c0.8-0.6,0.8-0.5,1.1-0.9c0.3-0.1,0.7-0.3,0.8-0.2l0.6,0.5c2.4-0.6,4.8-1.2,7.2-1.8l-0.6-0.4c11.4-3.5,22.3-7.3,33.2-12.4l0.4,0.3
	c2-1,3.9-1.9,5.8-2.9l-0.3-0.3c10.3-5.6,20.2-11.5,29.5-17.9l0.2,0.2c1.7-1.2,3.3-2.4,4.9-3.6l-0.2-0.2c8.1-6,16.5-13.2,23.9-19.8
	l0.1,0.1c1.4-1.4,2.9-2.7,4.3-4.1l-0.1-0.1c7.8-7.6,15.2-15.5,22.1-23.8l0,0c0.6-0.8,1-1.2,1.4-1.7c0.4-0.5,0.8-0.9,1.2-1.4
	C615,533.7,615.7,532.9,615.7,532.9z M611.3,382.8l-24.4,30.7l-27.6-22l24.4-30.7L611.3,382.8z M587.4,356.2l18.9-23.8l27.6,22
	L615,378.2L587.4,356.2z M583.3,418l-20.8,26.1l-27.6-22l20.8-26.1L583.3,418z M558.8,448.7l-18.9,23.8l-27.6-22l18.9-23.8
	L558.8,448.7z M536.2,477.1l-20.2,25.3l-27.6-22l20.2-25.3L536.2,477.1z M512.4,507l-18.9,23.8l-27.6-22l18.9-23.8L512.4,507z
	 M489.8,535.4l-20.1,25.3l-27.6-22l20.1-25.3L489.8,535.4z M466,565.3l-18.9,23.8l-27.6-22l18.9-23.8L466,565.3z M498.1,534.4
	l18.9-23.8l27.6,22l-18.9,23.8L498.1,534.4z M522.1,561l-20.2,25.3l-27.6-22l20.1-25.3L522.1,561z M520.7,506.1l20.1-25.3l27.6,22
	L548.3,528L520.7,506.1z M544.5,476.2l18.9-23.8l27.6,22l-18.9,23.8L544.5,476.2z M567.1,447.8l20.8-26.1l27.6,22l-20.8,26.1
	L567.1,447.8z M591.5,417.1l24.4-30.7l27.6,22l-24.4,30.7L591.5,417.1z M467.8,605.6l-16.1-12.8l18.9-23.8l27.6,22l-8,10
	C483.3,603.4,475.7,604.3,467.8,605.6z M458.9,606c-5.2-0.4-10.9-0.8-16.4-1.8l5.5-6.9L458.9,606z M619.6,381.8l18.9-23.8l23,18.3
	c0.5,2.9,0.2,6.1,0,9.5l-14.3,18L619.6,381.8z M658.7,413l-6.9-5.5l9.1-11.4C660.4,401.4,660.4,406.7,658.7,413z M623.7,442.8
	l24.4-30.7l9.3,7.4c-2.7,12.9-6.8,25.9-13,39.8L623.7,442.8z M642,464.8c-4.1,9.3-9.8,19.7-16.2,29.7l-26.5-21.1l20.8-26.1
	L642,464.8z M595.6,478l26.9,21.4c-4.3,6.6-9.4,13.5-14.6,20.1c-1.2,1.5-2.3,2.8-3.5,4.3l-27.7-22.1L595.6,478z M660.9,368.4
	l-18.7-14.9l11.8-14.8C657.9,347.9,660.1,357.7,660.9,368.4z M651.4,332.5l-13.8,17.3l-27.6-22l18.3-23l-4.6-3.7l-18.3,23L577,301.6
	l11.6-14.6c15.5,2.6,28.6,7.6,40.2,16.8C638.5,311.5,646.4,321.5,651.4,332.5z M432.9,482.5l18.9-23.8l28.4,22.6l-18.9,23.8
	L432.9,482.5z M457.6,509.7L437.5,535l-28.4-22.6l20.1-25.3L457.6,509.7z M455.5,454.2l20.1-25.3l28.4,22.6l-20.2,25.3L455.5,454.2z
	 M479.3,424.3l18.9-23.8l28.4,22.6l-18.9,23.8L479.3,424.3z M501.9,395.9l20.8-26.1l28.4,22.6l-20.8,26.1L501.9,395.9z M526.3,365.2
	l24.4-30.7l28.4,22.6l-24.4,30.7L526.3,365.2z M554.4,329.9l18.9-23.8l28.4,22.6l-18.9,23.8L554.4,329.9z M405.4,517l28.4,22.6
	l-18.9,23.8l-28.4-22.6L405.4,517z M581.7,286.2l-9.3,11.7l-13-10.3C567.3,286.3,574.6,285.7,581.7,286.2z M485.9,340.5l-20.8,26.1
	l-20.7-16.5c8.3-8.4,17.2-16.4,25.4-22.4L485.9,340.5z M474.6,324c12.1-9.1,23.9-16,35.9-21.6l3.5,2.8l-24.4,30.7L474.6,324z
	 M516.4,299.7c1.7-1.1,3-1.4,3.8-2.3l-2.6,3.2L516.4,299.7z M551.5,288.8l17.2,13.7l-18.9,23.8l-27.6-22l8.6-10.8
	C538.5,291.7,544.9,289.8,551.5,288.8z M423.3,428.5l20.2-25.3l27.6,22l-20.1,25.3L423.3,428.5z M447.2,455.1l-18.9,23.8l-27.6-22
	l18.9-23.8L447.2,455.1z M447.1,398.6l18.9-23.8l27.6,22l-18.9,23.8L447.1,398.6z M469.7,370.2l20.8-26.1l27.6,22l-20.8,26.1
	L469.7,370.2z M494.1,339.6l24.4-30.7l27.6,22l-24.4,30.7L494.1,339.6z M397,461.5l27.6,22l-20.1,25.3l-27.6-22L397,461.5z
	 M423.9,373c5.2-6.6,10.9-13.1,16.3-18.7l21.2,16.9l-18.9,23.8l-22-17.5C421.7,375.9,422.8,374.5,423.9,373z M417,382.1l21.9,17.4
	l-20.2,25.3l-19.3-15.4C404.8,400,410.6,390.9,417,382.1z M396.5,414.7l18.6,14.8l-18.9,23.8l-12.6-10
	C387.2,433.6,391.9,423.6,396.5,414.7z M381.4,449l11.1,8.8l-20.1,25.3l0.2,0.2C374.9,471.4,377.8,460,381.4,449z M370.9,494.3
	l2.3-2.9l27.6,22l-18.9,23.8l-10.4-8.3C370.3,517.9,370.1,506.4,370.9,494.3z M378.3,541.8l-3,3.8c-0.5-2.5-1-5.7-2.2-7.9
	L378.3,541.8z M377.5,552.1l5.3-6.7l28.4,22.6l-12.6,15.8C390,575.8,382.6,564.7,377.5,552.1z M403.1,587.7l12.7-16l27.6,22L436,603
	C424.1,600.6,413.1,595.6,403.1,587.7z M500.1,598.1l2.8-3.5l2.8,2.3C504.3,597,502.6,598,500.1,598.1z M512,594.4l-5.5-4.4
	l20.2-25.3l16.8,13.4C533.6,584,523.1,589.4,512,594.4z M548.7,574.7l-18.4-14.6l18.9-23.8l24.3,19.3
	C565.9,562.1,557.2,569,548.7,574.7z M578,551.7l-25.1-20l20.1-25.3l27.6,22C593.6,536.5,586,544.3,578,551.7z M484.8,792
	c0.1-2.6-5.9-4.9-14.6-5.9c8.7-1.7,14.7-4.4,14.5-7.1c-0.2-3-8-4.8-18.5-4.7c9.5-2.7,16.1-6.4,15.5-9.2c-0.5-2.9-8.3-3.9-18.6-2.7
	c10.1-3.9,17.1-8.8,16.2-11.7c-0.5-1.7-3.8-2.4-8.5-2.1c4.2-2.8,6.6-5.4,5.9-7.2c-1-2.8-9.5-2.5-20,0.6c8.8-5.3,14.4-10.8,13-13.4
	c-1.3-2.5-8.8-1.5-18,2.1c8.4-6.3,13.4-12.5,11.7-15c-1.5-2.2-8-0.8-15.9,3.2c6.2-6,9.6-11.5,7.9-13.5c-2.3-2.8-12.8,1.6-23.5,9.8
	c-9.5,7.3-23.5,20.9-24.9,25.7l-21.9,17.3l0.1,0.1l-14.7,5.2c-8.9,3.3-13.3,13.2-10,22.2c2.6,7.1,9.3,11.4,16.3,11.4l0,0l0.1,0
	c1.9,0,3.8-0.3,5.7-1c0.3-0.1,0.5-0.2,0.8-0.4l14.5-3.1c0,0,0,0,0-0.1l26.3,0.4c4,3,23.5,5.3,35.5,5.3
	C473.7,798.5,484.7,795.6,484.8,792z M433.8,769.7c-3.7,1.3-7,2.7-9.1,3.9l-28,4.9c-0.1-0.3-0.2-0.5-0.2-0.8l25.8-7.7
	C424.2,770.7,428.5,770.5,433.8,769.7z M429.1,754.1c-4.6,2.6-8.2,5.1-9.4,6.8l-25.9,9.8c-0.1-0.2-0.2-0.5-0.3-0.7l25.9-13.4
	C421.9,756.1,425.3,755.3,429.1,754.1z M411.7,742.2c2.5-0.8,5.9-2.5,9.6-4.5c-4.5,4-8,7.7-8.8,9.8L390,762.5
	c-0.4-0.9-0.9-1.6-1.2-2.2L411.7,742.2z M427.3,789.7l-28.8-0.5c0-0.8-0.1-1.7-0.2-2.6l26.5-1.7c1.9,1.2,6.9,2,13,2.5
	C433.5,788,429.8,788.8,427.3,789.7z"/>
</svg>
